<svg width="1080" height="1080" viewBox="0 0 1080 1080" fill="none" xmlns="http://www.w3.org/2000/svg">
<path d="M617.956 948.111C534.886 948.111 439.417 928.897 376.804 907.204C271.727 870.945 197.026 814.852 196.406 814.542V885.82C196.406 885.82 419.579 1164.74 726.443 997.386L744.111 927.038L746.28 918.05C701.646 933.856 664.14 948.111 617.956 948.111ZM935.978 251.752H936.598C936.288 251.442 935.978 250.822 935.978 250.513C920.48 225.1 902.502 201.547 882.664 179.544C798.044 86.5723 675.919 28 540.155 28C284.745 28 78 234.707 78 490.07C78 494.409 78 498.747 78.31 503.396C81.0996 617.751 125.114 721.88 196.406 801.216C197.026 801.526 282.576 855.759 386.413 891.088C481.572 923.629 629.114 948.421 749.69 905.654C758.369 901.315 767.048 896.667 775.417 891.708C848.568 848.941 908.701 786.34 948.996 711.963C949.306 711.343 1002.62 615.272 1002.62 490.69C1002 402.986 977.823 321.481 935.978 251.752ZM898.782 708.244C832.45 787.58 731.402 838.094 618.576 838.094C614.236 838.094 609.897 838.094 605.247 837.785C600.908 838.094 596.568 838.094 591.919 838.094C478.782 838.094 378.044 787.58 311.712 708.244C276.376 643.164 256.539 568.166 256.539 488.83C256.539 487.901 256.539 487.281 256.539 486.351C256.539 484.492 256.539 482.632 256.539 480.463C256.539 474.885 256.849 469.616 257.159 464.038C257.159 463.418 257.159 462.798 257.159 462.178C261.498 383.772 285.675 310.634 324.111 247.414C390.133 176.445 485.601 131.819 591.919 131.819C596.258 131.819 600.598 131.819 605.247 132.128C609.587 131.819 613.926 131.819 618.576 131.819C724.583 131.819 820.052 176.445 886.384 247.414C925.129 310.634 948.996 383.772 953.336 462.178C953.336 462.798 953.336 463.418 953.336 464.038C953.646 469.616 953.956 474.885 953.956 480.463C953.956 482.322 953.956 484.182 953.956 486.351C953.956 487.281 953.956 487.901 953.956 488.83C954.266 568.476 934.118 643.164 898.782 708.244Z" fill="#142DE1"/>
<path d="M547.949 504.191C549.762 510.004 551.574 516.18 553.024 521.993C443.188 573.946 279.339 393.018 383.013 312.727C448.988 261.863 512.787 383.935 547.949 504.191Z" fill="#142DE1"/>
<path d="M641.005 496.619C533.095 404.728 530.534 163.923 684.535 202.059C831.22 238.017 750.744 387.294 641.005 496.619Z" fill="#142DE1"/>
<path d="M745.483 536.678C739.294 536.678 733.105 536.313 726.916 535.585C756.041 441.227 808.102 366.907 864.896 395.323C959.189 442.32 894.385 536.678 745.483 536.678Z" fill="#142DE1"/>
<path d="M636.783 685.077C668.963 685.077 695.05 658.786 695.05 626.354C695.05 593.923 668.963 567.632 636.783 567.632C604.603 567.632 578.516 593.923 578.516 626.354C578.516 658.786 604.603 685.077 636.783 685.077Z" fill="#142DE1"/>
</svg>
