<svg width="145" height="29" viewBox="0 0 145 29" fill="none" xmlns="http://www.w3.org/2000/svg">
<path d="M15.2209 25.9373C12.8793 25.9373 10.1881 25.3956 8.42307 24.7841C5.46102 23.762 3.35525 22.1808 3.33777 22.172V24.1813C3.33777 24.1813 9.62887 32.0437 18.2791 27.3263L18.7772 25.3432L18.8383 25.0899C17.5801 25.5354 16.5229 25.9373 15.2209 25.9373ZM24.1858 6.30741H24.2032C24.1945 6.29867 24.1858 6.2812 24.1858 6.27247C23.7489 5.55611 23.2421 4.89217 22.6829 4.27192C20.2975 1.65111 16.8549 0 13.0278 0C5.828 0 0 5.82693 0 13.0254C0 13.1477 0 13.27 0.00873763 13.4011C0.0873763 16.6247 1.32812 19.56 3.33777 21.7964C3.35525 21.8051 5.76684 23.3339 8.69394 24.3298C11.3764 25.2471 15.5355 25.946 18.9344 24.7404C19.1791 24.6181 19.4237 24.4871 19.6597 24.3473C21.7217 23.1417 23.4168 21.377 24.5527 19.2804C24.5615 19.2629 26.0643 16.5548 26.0643 13.0429C26.0469 10.5706 25.3653 8.27301 24.1858 6.30741ZM23.1372 19.1756C21.2674 21.412 18.4189 22.836 15.2384 22.836C15.1161 22.836 14.9938 22.836 14.8627 22.8272C14.7404 22.836 14.6181 22.836 14.487 22.836C11.2978 22.836 8.45802 21.412 6.58817 19.1756C5.59208 17.341 5.03287 15.2269 5.03287 12.9905C5.03287 12.9643 5.03287 12.9468 5.03287 12.9206C5.03287 12.8682 5.03287 12.8157 5.03287 12.7546C5.03287 12.5973 5.04161 12.4488 5.05035 12.2916C5.05035 12.2741 5.05035 12.2566 5.05035 12.2392C5.17268 10.029 5.85421 7.96725 6.93768 6.1851C8.79879 4.18456 11.49 2.92657 14.487 2.92657C14.6093 2.92657 14.7316 2.92657 14.8627 2.9353C14.985 2.92657 15.1074 2.92657 15.2384 2.92657C18.2267 2.92657 20.9179 4.18456 22.7877 6.1851C23.8799 7.96725 24.5527 10.029 24.6751 12.2392C24.6751 12.2566 24.6751 12.2741 24.6751 12.2916C24.6838 12.4488 24.6925 12.5973 24.6925 12.7546C24.6925 12.807 24.6925 12.8594 24.6925 12.9206C24.6925 12.9468 24.6925 12.9643 24.6925 12.9905C24.7013 15.2356 24.1333 17.341 23.1372 19.1756Z" fill="white"/>
<path d="M13.2513 13.4217C13.3023 13.5855 13.3534 13.7596 13.3943 13.9235C10.2981 15.388 5.67932 10.2878 8.60182 8.02444C10.4616 6.59064 12.2601 10.0318 13.2513 13.4217Z" fill="white"/>
<path d="M15.8643 13.2089C12.8224 10.6185 12.7502 3.8304 17.0914 4.90544C21.2263 5.91905 18.9578 10.1271 15.8643 13.2089Z" fill="white"/>
<path d="M18.8206 14.3383C18.6461 14.3383 18.4716 14.328 18.2972 14.3074C19.1182 11.6476 20.5858 9.55254 22.1867 10.3536C24.8448 11.6784 23.018 14.3383 18.8206 14.3383Z" fill="white"/>
<path d="M15.7595 18.5216C16.6666 18.5216 17.402 17.7805 17.402 16.8663C17.402 15.9521 16.6666 15.2109 15.7595 15.2109C14.8524 15.2109 14.117 15.9521 14.117 16.8663C14.117 17.7805 14.8524 18.5216 15.7595 18.5216Z" fill="white"/>
<path d="M40.6524 14.8056C40.6524 13.4368 40.4718 12.4673 40.1105 11.8969C39.7683 11.3266 39.1695 11.0414 38.314 11.0414C38.0478 11.0414 37.7722 11.0604 37.487 11.0985C37.2018 11.1175 36.9262 11.146 36.66 11.184V22.7618H32.411V8.27531C32.7722 8.18025 33.1905 8.0852 33.6657 7.99014C34.16 7.87607 34.6733 7.78102 35.2057 7.70497C35.757 7.60992 36.3178 7.54338 36.8881 7.50535C37.4585 7.44832 38.0193 7.4198 38.5706 7.4198C39.6543 7.4198 40.5288 7.56239 41.1942 7.84756C41.8786 8.11371 42.4394 8.4369 42.8767 8.81713C43.485 8.37987 44.1789 8.03767 44.9584 7.79052C45.7569 7.54338 46.4888 7.4198 47.1542 7.4198C48.3519 7.4198 49.331 7.5909 50.0914 7.93311C50.8709 8.2563 51.4887 8.72207 51.945 9.33043C52.4013 9.93879 52.715 10.6612 52.8861 11.4977C53.0572 12.3342 53.1427 13.2657 53.1427 14.2923V22.7618H48.8937V14.8056C48.8937 13.4368 48.7131 12.4673 48.3519 11.8969C48.0097 11.3266 47.4108 11.0414 46.5553 11.0414C46.3272 11.0414 46.004 11.0985 45.5858 11.2125C45.1865 11.3266 44.8538 11.4692 44.5877 11.6403C44.7208 12.0775 44.8063 12.5433 44.8443 13.0376C44.8823 13.5129 44.9014 14.0262 44.9014 14.5775V22.7618H40.6524V14.8056Z" fill="white"/>
<path d="M70.4611 15.2334C70.4611 16.4121 70.29 17.4957 69.9478 18.4843C69.6056 19.4539 69.1113 20.2904 68.4649 20.9938C67.8185 21.6782 67.0391 22.2105 66.1265 22.5907C65.233 22.971 64.2254 23.1611 63.1038 23.1611C62.0011 23.1611 60.9935 22.971 60.081 22.5907C59.1875 22.2105 58.4175 21.6782 57.7711 20.9938C57.1247 20.2904 56.6209 19.4539 56.2597 18.4843C55.8985 17.4957 55.7179 16.4121 55.7179 15.2334C55.7179 14.0547 55.8985 12.9806 56.2597 12.011C56.6399 11.0414 57.1533 10.2144 57.7996 9.53005C58.465 8.84564 59.2445 8.31333 60.138 7.93311C61.0505 7.55288 62.0391 7.36277 63.1038 7.36277C64.1874 7.36277 65.176 7.55288 66.0695 7.93311C66.982 8.31333 67.7615 8.84564 68.4079 9.53005C69.0543 10.2144 69.5581 11.0414 69.9193 12.011C70.2805 12.9806 70.4611 14.0547 70.4611 15.2334ZM66.1265 15.2334C66.1265 13.9216 65.8604 12.895 65.3281 12.1536C64.8148 11.3931 64.0733 11.0129 63.1038 11.0129C62.1342 11.0129 61.3832 11.3931 60.8509 12.1536C60.3186 12.895 60.0525 13.9216 60.0525 15.2334C60.0525 16.5452 60.3186 17.5908 60.8509 18.3702C61.3832 19.1307 62.1342 19.5109 63.1038 19.5109C64.0733 19.5109 64.8148 19.1307 65.3281 18.3702C65.8604 17.5908 66.1265 16.5452 66.1265 15.2334Z" fill="white"/>
<path d="M73.1822 8.27531C73.9046 8.06618 74.8362 7.87607 75.9769 7.70497C77.1175 7.51486 78.3152 7.4198 79.57 7.4198C80.8437 7.4198 81.8988 7.5909 82.7353 7.93311C83.5908 8.2563 84.2657 8.72207 84.76 9.33043C85.2543 9.93879 85.606 10.6612 85.8151 11.4977C86.0243 12.3342 86.1288 13.2657 86.1288 14.2923V22.7618H81.8798V14.8056C81.8798 13.4368 81.6992 12.4673 81.338 11.8969C80.9768 11.3266 80.3019 11.0414 79.3133 11.0414C79.0091 11.0414 78.6859 11.0604 78.3437 11.0985C78.0015 11.1175 77.6974 11.146 77.4312 11.184V22.7618H73.1822V8.27531Z" fill="white"/>
<path d="M95.393 23.047C94.1573 23.028 93.1497 22.8949 92.3702 22.6478C91.6098 22.4006 91.0014 22.0584 90.5451 21.6212C90.1079 21.1649 89.8037 20.6231 89.6326 19.9957C89.4805 19.3493 89.4045 18.6269 89.4045 17.8284V1.31721L93.6535 0.632812V16.9729C93.6535 17.3531 93.682 17.6953 93.739 17.9995C93.7961 18.3037 93.9006 18.5604 94.0527 18.7695C94.2238 18.9786 94.4614 19.1497 94.7656 19.2828C95.0698 19.4159 95.4785 19.5014 95.9918 19.5394L95.393 23.047Z" fill="white"/>
<path d="M111.887 15.2334C111.887 16.4121 111.716 17.4957 111.374 18.4843C111.032 19.4539 110.537 20.2904 109.891 20.9938C109.245 21.6782 108.465 22.2105 107.553 22.5907C106.659 22.971 105.652 23.1611 104.53 23.1611C103.427 23.1611 102.42 22.971 101.507 22.5907C100.614 22.2105 99.8437 21.6782 99.1973 20.9938C98.5509 20.2904 98.0471 19.4539 97.6859 18.4843C97.3247 17.4957 97.1441 16.4121 97.1441 15.2334C97.1441 14.0547 97.3247 12.9806 97.6859 12.011C98.0661 11.0414 98.5794 10.2144 99.2258 9.53005C99.8912 8.84564 100.671 8.31333 101.564 7.93311C102.477 7.55288 103.465 7.36277 104.53 7.36277C105.614 7.36277 106.602 7.55288 107.496 7.93311C108.408 8.31333 109.188 8.84564 109.834 9.53005C110.48 10.2144 110.984 11.0414 111.345 12.011C111.707 12.9806 111.887 14.0547 111.887 15.2334ZM107.553 15.2334C107.553 13.9216 107.287 12.895 106.754 12.1536C106.241 11.3931 105.5 11.0129 104.53 11.0129C103.56 11.0129 102.809 11.3931 102.277 12.1536C101.745 12.895 101.479 13.9216 101.479 15.2334C101.479 16.5452 101.745 17.5908 102.277 18.3702C102.809 19.1307 103.56 19.5109 104.53 19.5109C105.5 19.5109 106.241 19.1307 106.754 18.3702C107.287 17.5908 107.553 16.5452 107.553 15.2334Z" fill="white"/>
<path d="M118.23 14.7771C118.23 17.1535 119.19 18.3417 121.11 18.3417C121.547 18.3417 121.956 18.2847 122.336 18.1706C122.717 18.0566 123.04 17.9235 123.306 17.7714V10.9844C123.097 10.9464 122.85 10.9179 122.565 10.8989C122.279 10.8608 121.947 10.8418 121.566 10.8418C120.445 10.8418 119.608 11.2125 119.057 11.954C118.506 12.6954 118.23 13.6365 118.23 14.7771ZM127.555 20.8797C127.555 23.3322 126.928 25.1477 125.673 26.3264C124.437 27.5241 122.517 28.123 119.913 28.123C119 28.123 118.087 28.0374 117.175 27.8663C116.262 27.7142 115.416 27.5051 114.637 27.239L115.378 23.6744C116.044 23.9405 116.738 24.1496 117.46 24.3017C118.202 24.4538 119.038 24.5299 119.97 24.5299C121.186 24.5299 122.042 24.2637 122.536 23.7314C123.049 23.1991 123.306 22.5147 123.306 21.6782V21.1364C122.85 21.3455 122.374 21.5071 121.88 21.6212C121.405 21.7162 120.882 21.7637 120.312 21.7637C118.24 21.7637 116.652 21.1554 115.549 19.9387C114.447 18.7029 113.895 16.9824 113.895 14.7771C113.895 13.6745 114.067 12.6764 114.409 11.7829C114.751 10.8703 115.245 10.0909 115.892 9.4445C116.557 8.79811 117.365 8.30382 118.316 7.96162C119.266 7.60041 120.34 7.4198 121.538 7.4198C122.051 7.4198 122.574 7.44832 123.106 7.50535C123.658 7.54338 124.2 7.60041 124.732 7.67645C125.264 7.7525 125.768 7.84756 126.243 7.96162C126.738 8.05668 127.175 8.16124 127.555 8.27531V20.8797Z" fill="white"/>
<path d="M145 15.2334C145 16.4121 144.829 17.4957 144.487 18.4843C144.145 19.4539 143.65 20.2904 143.004 20.9938C142.358 21.6782 141.578 22.2105 140.666 22.5907C139.772 22.971 138.764 23.1611 137.643 23.1611C136.54 23.1611 135.533 22.971 134.62 22.5907C133.727 22.2105 132.957 21.6782 132.31 20.9938C131.664 20.2904 131.16 19.4539 130.799 18.4843C130.438 17.4957 130.257 16.4121 130.257 15.2334C130.257 14.0547 130.438 12.9806 130.799 12.011C131.179 11.0414 131.692 10.2144 132.339 9.53005C133.004 8.84564 133.784 8.31333 134.677 7.93311C135.59 7.55288 136.578 7.36277 137.643 7.36277C138.726 7.36277 139.715 7.55288 140.609 7.93311C141.521 8.31333 142.301 8.84564 142.947 9.53005C143.593 10.2144 144.097 11.0414 144.458 12.011C144.82 12.9806 145 14.0547 145 15.2334ZM140.666 15.2334C140.666 13.9216 140.399 12.895 139.867 12.1536C139.354 11.3931 138.612 11.0129 137.643 11.0129C136.673 11.0129 135.922 11.3931 135.39 12.1536C134.858 12.895 134.592 13.9216 134.592 15.2334C134.592 16.5452 134.858 17.5908 135.39 18.3702C135.922 19.1307 136.673 19.5109 137.643 19.5109C138.612 19.5109 139.354 19.1307 139.867 18.3702C140.399 17.5908 140.666 16.5452 140.666 15.2334Z" fill="white"/>
</svg>
